<mxfile host="app.diagrams.net" modified="2024-01-23T05:17:03.721Z" agent="Mozilla/5.0 (Macintosh; Intel Mac OS X 10_15_7) AppleWebKit/537.36 (KHTML, like Gecko) Chrome/120.0.0.0 Safari/537.36" version="22.1.21" etag="nyZSTWng2Zr9u39lv7-j" type="github">
  <diagram name="Trang-1" id="08C53FP0DXHV0VjGcTMj">
    <mxGraphModel>
      <root>
        <mxCell id="0" />
        <mxCell id="1" parent="0" />
      </root>
    </mxGraphModel>
  </diagram>
</mxfile>
